<svg xmlns="http://www.w3.org/2000/svg" viewBox="0 0 170.012 33.146"><defs><style>.a{fill:#ffc200;}.b{fill:#fff;}</style></defs><g transform="translate(124.662 7.268)"><g transform="translate(6.368)"><path class="a" d="M445.379,24.7l-.071-.212-.035-.142c0-.035,0-.035-.035-.071,0-.035,0-.035-.035-.071,0-.035-.035-.071-.035-.106s-.035-.071-.035-.106-.035-.071-.035-.106h0c-.035-.071-.035-.141-.071-.212a.124.124,0,0,0-.035-.071.035.035,0,0,0-.035-.035v-.035c0-.035,0-.035-.035-.035,0-.035,0-.035-.035-.035v-.106c0-.035-.035-.035-.035-.071s-.035-.071-.035-.106-.035-.035-.035-.071v-.035c0-.035-.035-.035-.035-.071-.035-.035-.035-.071-.071-.106s-.035-.071-.071-.106h0c0-.035-.035-.035-.035-.071s-.035-.035-.035-.071-.035-.035-.035-.071v-.035c0-.035-.035-.035-.035-.071s-.035-.035-.035-.071c-.071-.106-.142-.177-.212-.283,0-.035-.035-.035-.035-.071h0a.035.035,0,0,0-.035-.035l-.035-.035h0l-.035-.035v-.071h0l-.035-.035h0L444,21.8v-.035h0l-.035-.035-.071-.071-.035-.035h0l-.035-.035-.035-.035h0c-.035-.035-.071-.035-.071-.071l-.035-.035-.071-.071h0l-.071-.071H443.5l-.071-.071L443.4,21.2h0c-.035-.035-.071-.035-.071-.071h0c-.035,0-.035-.035-.071-.035l-.035-.035-.035-.035c-.035-.035-.071-.035-.106-.071h0l-.071-.035c-.035,0-.035-.035-.071-.035s-.035-.035-.071-.035a.035.035,0,0,1-.035-.035c-.035,0-.035,0-.071-.035.035,0,.035,0,.071.035-.035,0-.035,0-.071-.035h-.035c-.035,0-.035-.035-.071-.035h-.035c-.035,0-.035-.035-.071-.035h-.035c-.035,0-.035,0-.071-.035h-.212c-.071,0-.106-.035-.177-.035h-.884a2.175,2.175,0,0,0-.5.035h-.283c-.035,0-.035,0-.071.035h-.035c-.035,0-.035,0-.071.035-.035,0-.071.035-.142.035h-.035a1.827,1.827,0,0,0-.672.425,2.376,2.376,0,0,0-.566,1.238l-.035-.035a5.011,5.011,0,0,0-.778-.637c-.071-.035-.141-.106-.212-.141-.035,0-.035-.035-.071-.035l-.035-.035h0c-.035,0-.035-.035-.071-.035l-.212-.106c-.035,0-.035-.035-.071-.035-.106-.035-.212-.106-.318-.142-.035,0-.035-.035-.071-.035s-.071-.035-.106-.035a.212.212,0,0,0-.141-.035c-.035,0-.035,0-.071-.035-.035,0-.071-.035-.106-.035s-.071-.035-.106-.035a.124.124,0,0,1-.071-.035.655.655,0,0,0-.248-.071c-.106-.035-.248-.071-.354-.106h0c-.071,0-.106-.035-.177-.035a.13.13,0,0,1-.106-.035c-.106,0-.177-.035-.283-.035h-.035a.265.265,0,0,1-.177-.035,9.345,9.345,0,0,0-1.026-.071h-.637a.449.449,0,0,0-.212.035c-.141,0-.248.035-.389.035a.213.213,0,0,0-.142.035c-.141.035-.283.035-.389.071-.035,0-.071.035-.141.035-.071.035-.177.035-.248.071a.833.833,0,0,1-.283.071c-.106.035-.212.071-.354.106-.035,0-.071.035-.106.035s-.071.035-.106.035a1.723,1.723,0,0,0-.248.106,3.87,3.87,0,0,0-.531.283,7.168,7.168,0,0,0-1.557,1.167l-.106.106c-.035.071-.106.106-.141.177s-.106.106-.141.177a8.453,8.453,0,0,0-1.557,2.9,12,12,0,0,0-.531,3.679,7.111,7.111,0,0,0,.035.884h0a.778.778,0,0,0,.035.283v.177c.035.248.071.5.106.778h0c0,.071.035.142.035.212h0c.035.106.035.212.071.354.035.177.106.389.141.566l.106.318c.035.071.035.142.071.212.035.106.071.177.106.283s.106.248.142.354c.141.318.318.637.5.955.071.106.141.248.212.354.035.071.071.106.106.177a1.947,1.947,0,0,0,.248.318h0a5.292,5.292,0,0,0,.389.46h0a6.678,6.678,0,0,0,.708.708.488.488,0,0,0,.141.106,4.829,4.829,0,0,0,.743.531c.035.035.106.071.141.106l.637.318c.071.035.106.071.177.071.035,0,.071.035.106.035s.071.035.106.035.071.035.106.035c.071.035.141.035.177.071.071.035.141.035.177.071.106.035.177.071.283.106s.248.071.354.106a.449.449,0,0,0,.212.035c.071,0,.141.035.212.035h0c.071,0,.141.035.212.035H433c.071,0,.142.035.212.035h.071c.106,0,.248.035.354.035H434.7a.98.98,0,0,0,.318-.035c.106,0,.177-.035.283-.035a1.033,1.033,0,0,0,.318-.071c.141-.035.318-.071.46-.106.035,0,.071-.035.106-.035.071-.035.141-.035.212-.071s.142-.035.177-.071c.106-.035.177-.071.283-.106a.123.123,0,0,0,.071-.035c.035-.035.071-.035.141-.071h0c.035-.035.071-.035.106-.071h0a.124.124,0,0,0,.071-.035l.212-.106c.106-.071.177-.106.283-.177a.035.035,0,0,0,.035-.035c.035,0,.035-.035.071-.035.035-.035.106-.071.141-.106a.487.487,0,0,1,.142-.106h0c.035-.035.071-.071.106-.071s.035-.035.071-.035c.035-.035.071-.071.106-.071h0l.035-.035.035-.035.035-.035h0a.937.937,0,0,1,.212-.177,7.108,7.108,0,0,1-.424,2.193,4.576,4.576,0,0,1-1.1,1.556,5.32,5.32,0,0,1-1.557.92,5.642,5.642,0,0,1-1.875.318,5.1,5.1,0,0,1-1.521-.212,5.778,5.778,0,0,1-1.309-.566,4.805,4.805,0,0,0-1.91-.814c-.778,0-1.167.672-2.158,2.335l-.035.071v.106a.267.267,0,0,0,.142.248c.035.035.106.142.212.248a11.363,11.363,0,0,0,.884.778,10.074,10.074,0,0,0,1.486.92,8.869,8.869,0,0,0,2.016.814,9.423,9.423,0,0,0,2.547.354h0a10.072,10.072,0,0,0,3.82-.743,8.445,8.445,0,0,0,2.936-1.981,9.535,9.535,0,0,0,1.061-1.309h0a.035.035,0,0,1,.035-.035,9.2,9.2,0,0,0,1.309-3.184h0v-.212c0-.071.035-.106.035-.177v-.283c.035-.283.035-.6.071-.92V25.163a.39.39,0,0,1,.46-.46Zm-6.933,5.165v.566h0v.354a.213.213,0,0,1-.035.142h0a.213.213,0,0,1-.035.141.13.13,0,0,1-.035.106c0,.071-.035.141-.035.212v.071c0,.035,0,.071-.035.071,0,.035,0,.035-.035.071,0,.035-.035.071-.035.106h0a5.5,5.5,0,0,1-.743,1.592,4.067,4.067,0,0,1-.5.6h0c-.071.071-.141.106-.177.177h0l-.106.106h0a.772.772,0,0,0-.177.141h0c-.035.035-.071.035-.106.071s-.071.035-.106.071a3,3,0,0,1-.778.318,3.856,3.856,0,0,1-.92.106,3.564,3.564,0,0,1-.884-.106c-.141-.035-.248-.071-.389-.106h0c-.106-.035-.177-.071-.283-.106-.035-.035-.071-.035-.106-.071s-.106-.035-.141-.071h0c-.071-.035-.177-.106-.248-.141-.035-.035-.071-.035-.071-.071a6.157,6.157,0,0,1-.531-.46l-.141-.142a.77.77,0,0,1-.141-.177c0-.035-.035-.035-.035-.071-.035-.035-.035-.071-.071-.106s-.035-.071-.071-.106h0a458.291,458.291,0,0,0-.141-.283,2.438,2.438,0,0,1-.248-.531c-.035-.071-.035-.106-.071-.177s-.035-.106-.071-.177a.655.655,0,0,1-.071-.248c0-.035,0-.071-.035-.071,0-.035-.035-.071-.035-.106s-.035-.106-.035-.142h0c-.035-.106-.035-.248-.071-.389a.213.213,0,0,0-.035-.142c0-.106-.035-.177-.035-.283a.778.778,0,0,0-.035-.283h0v-.46a3.041,3.041,0,0,1,.035-.566v-.142a769.056,769.056,0,0,0,.071-.424,1.032,1.032,0,0,1,.071-.318.13.13,0,0,1,.035-.106,2.945,2.945,0,0,1,.142-.531c0-.071.035-.106.071-.177a2.426,2.426,0,0,1,.106-.283c0-.035.035-.035.035-.071s.035-.035.035-.071.035-.071.035-.106h0c0-.035.035-.035.035-.071a7.534,7.534,0,0,1,.566-.884l.106-.106c.035-.035.071-.106.141-.142.106-.106.212-.177.318-.283.071-.071.141-.106.212-.177h0c.035-.035.071-.035.106-.071a.035.035,0,0,0,.035-.035l.212-.106c.035,0,.071-.035.106-.035h0a.123.123,0,0,0,.071-.035c.035,0,.071-.035.106-.035s.071-.035.106-.035a.124.124,0,0,0,.071-.035h0a.123.123,0,0,0,.071-.035.13.13,0,0,0,.106-.035h0c.035,0,.071,0,.071-.035h0c.035,0,.071,0,.071-.035h0a.13.13,0,0,0,.106-.035h.106a.213.213,0,0,0,.141-.035h.5a3.489,3.489,0,0,1,.849.106.5.5,0,0,1,.212.071c.071.035.141.035.212.071s.106.035.177.071h0c.035,0,.035.035.071.035s.035,0,.071.035.106.035.141.071c.071.035.106.071.177.106.035.035.071.035.106.071s.071.035.106.071.106.071.141.106.106.071.141.142l.071.071.071.071.071.071.071.071.071.071h0a1.542,1.542,0,0,1,.212.248h0c.035.071.071.106.106.177h0c.071.106.106.177.177.283h0a.268.268,0,0,1,.071.142c.035.035.035.106.071.177l.106.212a.512.512,0,0,1,.071.248c0,.035.035.071.035.106s.035.071.035.142c0,.035.035.071.035.106h0c0,.035.035.071.035.106h0a.13.13,0,0,0,.035.106v.035a.268.268,0,0,0,.035.142.213.213,0,0,0,.035.142h0v.141c0,.071.035.177.035.248a.448.448,0,0,0,.035.212v.6a.319.319,0,0,0-.035.177Z" transform="translate(-406.396 -20.581)"/><path class="a" d="M388.123,34.927h-1.769a.213.213,0,0,1-.141-.035h-.106a.076.076,0,0,1-.071-.071c-.035-.035-.035-.071-.071-.106h0a.448.448,0,0,1-.035-.212V27.746a5.743,5.743,0,0,0-.035-.743h0a9.652,9.652,0,0,0-.318-2.158,5.532,5.532,0,0,0-1.273-2.264,6.378,6.378,0,0,0-2.37-1.521,5.468,5.468,0,0,0-.814-.248,8.283,8.283,0,0,0-1.061-.177h0a9.29,9.29,0,0,0-2.795.035h0a10.032,10.032,0,0,0-2.264.637,9.364,9.364,0,0,0-1.7.955,13.577,13.577,0,0,0-1.2,1.026c-.283.318-.531.566-.708.814-.071.106-.142.177-.177.248a.321.321,0,0,0-.106.248v.071l.035.035c1.1,1.309,1.556,1.875,2.264,1.769a4.322,4.322,0,0,0,1.627-.955,8.779,8.779,0,0,1,1.1-.672,3.773,3.773,0,0,1,.672-.248h0a.11.11,0,0,0,.071-.035c.177-.035.389-.106.566-.142a.213.213,0,0,0,.141-.035,4.319,4.319,0,0,1,2.193.212h0a2.032,2.032,0,0,1,.248.142h0a1.726,1.726,0,0,1,.46.354h0c.106.142.177.283.283.424,0,.035.035.071.035.106a6.555,6.555,0,0,1,.248,1.769H380.8c-.46,0-1.026.035-1.733.071-.672.035-1.415.142-2.158.248a13.777,13.777,0,0,0-2.3.6,7.745,7.745,0,0,0-2.087,1.061A4.574,4.574,0,0,0,371,31.036a4.757,4.757,0,0,0-.6,2.405h0a5.559,5.559,0,0,0,.5,2.37,5.465,5.465,0,0,0,1.344,1.769,6.089,6.089,0,0,0,1.946,1.061,6.9,6.9,0,0,0,2.264.354,6.165,6.165,0,0,0,2.087-.318,5.579,5.579,0,0,0,1.521-.778,6.218,6.218,0,0,0,.99-.92,2.251,2.251,0,0,0,.566,1.38,1.677,1.677,0,0,0,.672.424h.035a.666.666,0,0,0,.283.071.13.13,0,0,1,.106.035h.035c.071,0,.106.035.177.035h.071c.141,0,.318.035.5.035h.884c.035,0,.071,0,.071-.035h.035c.071,0,.106-.035.177-.035h.177c.035,0,.035,0,.071-.035h.035c.035,0,.035,0,.071-.035.035,0,.035,0,.071-.035.035,0,.035,0,.071-.035h.035c.035,0,.035,0,.071-.035-.035,0-.035,0-.071.035.035,0,.035,0,.071-.035a.035.035,0,0,0,.035-.035c.035,0,.035-.035.071-.035s.035-.035.071-.035l.071-.035c.035,0,.071-.035.106-.071a.035.035,0,0,0,.035-.035l.035-.035a.123.123,0,0,1,.071-.035h0c.035-.035.071-.035.071-.071h.035c.035-.035.071-.035.106-.071s.106-.071.142-.106a.771.771,0,0,1,.177-.141h0l.035-.035.035-.035h0l.071-.071a.035.035,0,0,1,.035-.035l.071-.071h0l.035-.035h0l.035-.035h0l.035-.035.071-.071h0a.035.035,0,0,1,.035-.035h0a.035.035,0,0,1,.035-.035c0-.035.035-.035.035-.071h0c.035-.035.035-.071.071-.071.035-.035.035-.071.071-.106.035-.071.106-.141.141-.212.035-.035.035-.071.071-.106h0v-.035a6.368,6.368,0,0,0,.743-1.627l.212-.354Zm-6.9-3.891a4.421,4.421,0,0,1-.283,1.486,1.734,1.734,0,0,1-.106.248h0a5.08,5.08,0,0,1-.672,1.1,3.752,3.752,0,0,1-1.132.991,3.255,3.255,0,0,1-1.415.389,2.866,2.866,0,0,1-1.309-.283,2.042,2.042,0,0,1-.743-.708,1.714,1.714,0,0,1-.248-.92,1.817,1.817,0,0,1,.212-.884c.035-.035.071-.106.106-.141a2.526,2.526,0,0,1,.884-.708,6.315,6.315,0,0,1,1.309-.425,11.55,11.55,0,0,1,1.486-.212c.46-.035.884-.035,1.274-.035h.6v.106Z" transform="translate(-370.4 -20.545)"/></g><path class="a" d="M357.353,61.375a2.476,2.476,0,1,1-2.476-2.476,2.483,2.483,0,0,1,2.476,2.476" transform="translate(-352.4 -45.331)"/></g><path class="b" d="M248.246,29.791V30a4.726,4.726,0,0,0,.424,2.052,4.255,4.255,0,0,0,1.1,1.557,4.556,4.556,0,0,0,1.592.955,5.643,5.643,0,0,0,1.875.318,5.517,5.517,0,0,0,1.557-.212,5.144,5.144,0,0,0,1.309-.566,4.9,4.9,0,0,1,1.946-.814c.778,0,1.2.708,2.193,2.37l.035.071v.071a.358.358,0,0,1-.142.248l-.248.248a7.943,7.943,0,0,1-.92.778,12.162,12.162,0,0,1-1.486.955,9.2,9.2,0,0,1-2.052.778,9.74,9.74,0,0,1-2.582.318h0a10.58,10.58,0,0,1-3.891-.708,8.271,8.271,0,0,1-2.971-1.981,9.557,9.557,0,0,1-1.91-2.936,10.291,10.291,0,0,1-.6-2.335c0-.106-.035-.212-.035-.318s-.035-.212-.035-.318h0V29.9h0v-.637a.69.69,0,0,1,.035-.283c0-.106.035-.212.035-.318a10.238,10.238,0,0,1,.566-2.335,8.786,8.786,0,0,1,1.91-2.936,8.589,8.589,0,0,1,2.971-1.981,10.445,10.445,0,0,1,3.891-.707,9.74,9.74,0,0,1,2.582.318,11.335,11.335,0,0,1,2.052.778,9.029,9.029,0,0,1,1.486.955,7.944,7.944,0,0,1,.92.778l.248.248a.358.358,0,0,1,.141.248V24.1l-.035.071c-.99,1.7-1.415,2.37-2.193,2.37a1.985,1.985,0,0,1-.814-.212c-.318-.142-.672-.354-1.132-.6a6.136,6.136,0,0,0-1.344-.566,5.517,5.517,0,0,0-1.556-.212,5.643,5.643,0,0,0-1.875.318,4.556,4.556,0,0,0-1.592.955,4.14,4.14,0,0,0-1.1,1.557,6.017,6.017,0,0,0-.354,2.016" transform="translate(-157.297 -13.377)"/><path class="b" d="M133.284,26.348a8.453,8.453,0,0,0-1.557-2.9,7.08,7.08,0,0,0-2.476-1.875,7.814,7.814,0,0,0-2.016-.6,8.7,8.7,0,0,0-.991-.071H126a7.785,7.785,0,0,0-2.158.283,6.261,6.261,0,0,0-1.557.672h0a3.16,3.16,0,0,0-1.132,1.026v.035a2.251,2.251,0,0,0-.566-1.38,1.676,1.676,0,0,0-.672-.425h-.035c-.035,0-.071-.035-.141-.035-.035,0-.035,0-.071-.035h-.035c-.035,0-.035,0-.071-.035h-.283c-.141,0-.318-.035-.5-.035h-.814c-.035,0-.071,0-.071.035h-.035a1.532,1.532,0,0,1-.177.035h-.248c-.035,0-.035,0-.035.035-.035,0-.035,0-.071.035-.035,0-.035,0-.071.035h-.035c-.035,0-.035,0-.071.035.035,0,.035,0,.071-.035-.035,0-.035,0-.071.035a.035.035,0,0,0-.035.035c-.035,0-.035.035-.071.035s-.035.035-.071.035l-.071.035h0c-.035.035-.071.035-.106.071l-.035.035-.035.035c-.035,0-.035.035-.071.035h0a.076.076,0,0,0-.071.071h0l-.035.035c-.035,0-.035.035-.071.071h-.035l-.071.071h0c-.035,0-.035.035-.071.071l-.035.035c-.035.035-.071.035-.071.071h0l-.035.035-.035.035h0l-.071.071-.035.035-.071.071h0l-.035.035h0l-.035.035h0l-.035.035-.071.071h0a.035.035,0,0,1-.035.035h0a.035.035,0,0,1-.035.035c0,.035-.035.035-.035.071h0l-.071.071c-.035.035-.035.071-.071.106-.035.071-.106.142-.141.212a7688.107,7688.107,0,0,0-.283.425c0,.035-.035.035-.035.071h0v.035c0,.035-.035.035-.035.071-.035.071-.071.106-.071.177v.035c-.106.248-.212.531-.318.814,0,.035-.035.106-.035.142l-.106.318V25h1.91c.035,0,.035,0,.071.035h.035a.035.035,0,0,1,.035.035h0a1.179,1.179,0,0,1,.106.212h0v.071h0v.035h0v21.26h2.264a2.172,2.172,0,0,0,2.476-2.37V37.42a2.023,2.023,0,0,0,.283.248,5.99,5.99,0,0,0,.99.707,6.553,6.553,0,0,0,1.415.566,7.726,7.726,0,0,0,5.094-.425,7.331,7.331,0,0,0,2.547-1.875,9.364,9.364,0,0,0,1.7-2.9,11.265,11.265,0,0,0,.6-3.75,25.464,25.464,0,0,0-.743-3.644m-4.493,5.908a4.472,4.472,0,0,1-.884,1.556,3.364,3.364,0,0,1-1.274.955,3.785,3.785,0,0,1-1.521.318,3.27,3.27,0,0,1-1.7-.425,3.581,3.581,0,0,1-1.2-1.1,5.5,5.5,0,0,1-.743-1.592,7.975,7.975,0,0,1-.212-1.274.979.979,0,0,0-.035-.318v-.5a8.637,8.637,0,0,1,.318-2.087,4.384,4.384,0,0,1,.884-1.557,3.084,3.084,0,0,1,1.274-.884,4.112,4.112,0,0,1,1.486-.283,3.5,3.5,0,0,1,1.592.354,2.006,2.006,0,0,1,.46.283,3.974,3.974,0,0,1,1.38,1.733,6.863,6.863,0,0,1,.531,2.688,5.812,5.812,0,0,1-.354,2.123" transform="translate(-73.996 -13.507)"/><path class="b" d="M19,26.348a8.454,8.454,0,0,0-1.557-2.9,7.081,7.081,0,0,0-2.476-1.875,7.814,7.814,0,0,0-2.016-.6,8.7,8.7,0,0,0-.991-.071h-.248a7.785,7.785,0,0,0-2.158.283,6.261,6.261,0,0,0-1.557.672h0a3.161,3.161,0,0,0-1.132,1.026v.035a2.251,2.251,0,0,0-.566-1.38,1.676,1.676,0,0,0-.672-.425H5.589c-.035,0-.071-.035-.106-.035s-.035,0-.071-.035H5.377c-.035,0-.035,0-.071-.035H5.023c-.141,0-.318-.035-.5-.035H3.714c-.035,0-.071,0-.071.035H3.608a1.532,1.532,0,0,1-.177.035H3.184a.035.035,0,0,0-.035.035c-.035,0-.035,0-.071.035-.035,0-.035,0-.071.035H2.972c-.035,0-.035,0-.071.035.035,0,.035,0,.071-.035-.035,0-.035,0-.071.035a.035.035,0,0,0-.035.035c-.035,0-.035.035-.071.035s-.035.035-.071.035l-.071.035h0c-.035.035-.071.035-.106.071l-.035.035-.035.035c-.035,0-.035.035-.071.035h0a.076.076,0,0,0-.071.071h0l-.035.035a.864.864,0,0,0-.248.035H2.016l-.071.071h0c-.035,0-.035.035-.071.071l-.035.035c-.035.035-.071.035-.071.071h0l-.035.035-.035.035h0c-.035.035-.071.035-.106.071a.035.035,0,0,1-.035.035l-.071.071h0l-.035.035h0l-.035.035h0l-.035.035-.071.071h0a.035.035,0,0,1-.035.035h0a.035.035,0,0,1-.035.035c0,.035-.035.035-.035.071h0l-.071.071c-.035.035-.035.071-.071.106-.035.071-.106.142-.142.212a.74.74,0,0,1-.142.212.74.74,0,0,1-.142.212c0,.035-.035.035-.035.071h0v.035c0,.035-.035.035-.035.071-.035.071-.071.106-.071.177v.035a3.245,3.245,0,0,0-.318.814c0,.035-.035.106-.035.142L0,24.933v.035H1.91c.035,0,.035,0,.071.035h.035a.035.035,0,0,1,.035.035h.035a1.178,1.178,0,0,1,.106.212h0v.071h0v.035h0v21.26H4.457a2.561,2.561,0,0,0,1.875-.637,2.559,2.559,0,0,0,.6-1.733V37.385a2.022,2.022,0,0,0,.283.248,5.99,5.99,0,0,0,.99.708,6.552,6.552,0,0,0,1.415.566,7.726,7.726,0,0,0,5.094-.424,7.331,7.331,0,0,0,2.547-1.875,9.365,9.365,0,0,0,1.7-2.9,11.265,11.265,0,0,0,.6-3.75A11.862,11.862,0,0,0,19,26.348m-4.457,5.908a4.472,4.472,0,0,1-.884,1.556,3.364,3.364,0,0,1-1.273.955,3.785,3.785,0,0,1-1.521.318,3.27,3.27,0,0,1-1.7-.425,4.073,4.073,0,0,1-1.238-1.1,5.5,5.5,0,0,1-.743-1.592A7.974,7.974,0,0,1,6.969,30.7v-.814A8.638,8.638,0,0,1,7.287,27.8a4.384,4.384,0,0,1,.884-1.557,3.084,3.084,0,0,1,1.274-.884,4.112,4.112,0,0,1,1.486-.283,3.5,3.5,0,0,1,1.592.354,2.006,2.006,0,0,1,.46.283,3.974,3.974,0,0,1,1.38,1.733,6.863,6.863,0,0,1,.531,2.688,7.831,7.831,0,0,1-.354,2.123" transform="translate(0 -13.507)"/><path class="b" d="M223.965,35.062h-.071a.213.213,0,0,1-.142-.035h-.035a54.569,54.569,0,0,0-.071-.071.035.035,0,0,1-.035-.035h0v-.035h0c-.035-.035-.035-.071-.035-.141h0V23.07a2.493,2.493,0,0,0-.6-1.733,2.538,2.538,0,0,0-1.592-.637H218.8V36.8a2.493,2.493,0,0,0,.6,1.733,2.053,2.053,0,0,0,.991.531.13.13,0,0,1,.106.035h.071c.071,0,.106.035.177.035h.071c.141,0,.318.035.5.035h.849c.035,0,.071,0,.071-.035h.035c.071,0,.106-.035.177-.035h.177c.035,0,.035,0,.071-.035h.035c.035,0,.035,0,.071-.035.035,0,.035,0,.071-.035.035,0,.035,0,.071-.035h.035c.035,0,.035,0,.071-.035-.035,0-.035,0-.071.035.035,0,.035,0,.071-.035a.035.035,0,0,0,.035-.035c.035,0,.035-.035.071-.035s.035-.035.071-.035l.071-.035c.035,0,.071-.035.106-.071a.035.035,0,0,0,.035-.035l.035-.035c.035,0,.035-.035.071-.035h0c.035-.035.071-.035.071-.071l.035-.035c.035-.035.071-.035.106-.071s.106-.071.141-.106a.772.772,0,0,1,.177-.142h0l.035-.035.035-.035h0l.071-.071a.035.035,0,0,1,.035-.035l.071-.071h0l.035-.035h0l.035-.035h0l.035-.035h0l.071-.071h0a.035.035,0,0,1,.035-.035h0a.035.035,0,0,1,.035-.035h0c0-.035.035-.035.035-.071h0c.035-.035.035-.071.071-.071.035-.035.035-.071.071-.106.035-.071.106-.141.141-.212.035-.035.035-.071.071-.106s.035-.071.071-.106a.739.739,0,0,1,.141-.212.035.035,0,0,1,.035-.035c0-.035.035-.035.035-.071h0l.035-.071v-.035c0-.035.035-.035.035-.071s.035-.071.035-.106h0a.6.6,0,0,0,.071-.177c.071-.142.106-.248.177-.389,0-.035.035-.071.035-.106h0c0-.035.035-.071.035-.106s0-.035.035-.071c0-.035,0-.035.035-.071l-.142-.177.071-.248Zm-3.75,3.962c.071.035.141.035.212.071-.071-.035-.142-.035-.212-.071m1.627-18.254a.5.5,0,0,1,.212.071.379.379,0,0,0-.212-.071" transform="translate(-141.399 -13.377)"/><path class="b" d="M223.353,2.476A2.476,2.476,0,1,1,220.876,0a2.484,2.484,0,0,1,2.476,2.476" transform="translate(-141.141)"/><path class="b" d="M315.281,35.027H313.3a.076.076,0,0,1-.071-.071c-.035-.035-.035-.071-.071-.106h0a.448.448,0,0,1-.035-.212V27.846a5.743,5.743,0,0,0-.035-.743h0a9.654,9.654,0,0,0-.318-2.158,5.532,5.532,0,0,0-1.273-2.264,6.378,6.378,0,0,0-2.37-1.521,5.467,5.467,0,0,0-.814-.248,8.286,8.286,0,0,0-1.061-.177h0a9.29,9.29,0,0,0-2.795.035h0a10.031,10.031,0,0,0-2.264.637,11.214,11.214,0,0,0-1.733.955,13.579,13.579,0,0,0-1.2,1.026c-.283.318-.531.566-.707.814-.071.106-.142.177-.177.248a.321.321,0,0,0-.106.248v.071l.035.035c1.1,1.309,1.556,1.875,2.264,1.769a4.322,4.322,0,0,0,1.627-.955,8.781,8.781,0,0,1,1.1-.672,3.774,3.774,0,0,1,.672-.248h0a.11.11,0,0,0,.071-.035c.177-.035.389-.106.566-.141a.213.213,0,0,0,.141-.035,4.319,4.319,0,0,1,2.193.212h0a2.027,2.027,0,0,1,.248.141h0a1.725,1.725,0,0,1,.46.354h0c.106.142.177.283.283.424,0,.035.035.071.035.106a6.554,6.554,0,0,1,.248,1.769h-.142c-.46,0-1.026.035-1.733.071-.672.035-1.415.142-2.158.248a12.569,12.569,0,0,0-2.264.6,7.744,7.744,0,0,0-2.087,1.061,4.574,4.574,0,0,0-1.521,1.663,4.757,4.757,0,0,0-.6,2.406h0a5.56,5.56,0,0,0,.5,2.37,5.465,5.465,0,0,0,1.344,1.769,6.089,6.089,0,0,0,1.946,1.061,6.9,6.9,0,0,0,2.264.354,6.165,6.165,0,0,0,2.087-.318A5.58,5.58,0,0,0,307.357,38a6.221,6.221,0,0,0,.991-.92,2.251,2.251,0,0,0,.566,1.38,1.676,1.676,0,0,0,.672.424h.035a.666.666,0,0,0,.283.071.13.13,0,0,1,.106.035h.035c.071,0,.106.035.177.035h.071c.142,0,.318.035.5.035h.849c.035,0,.071,0,.071-.035h.035c.071,0,.106-.035.177-.035h.283c.035,0,.035,0,.071-.035.035,0,.035,0,.071-.035.035,0,.035,0,.071-.035h.035c.035,0,.035,0,.071-.035-.035,0-.035,0-.071.035.035,0,.035,0,.071-.035a.035.035,0,0,0,.035-.035c.035,0,.035-.035.071-.035s.035-.035.071-.035l.071-.035c.035,0,.071-.035.106-.071a.035.035,0,0,0,.035-.035l.035-.035a.123.123,0,0,1,.071-.035h0c.035-.035.071-.035.071-.071h.035c.035-.035.071-.035.106-.071s.106-.071.142-.106a.773.773,0,0,1,.177-.141h0l.035-.035.035-.035h0L313.69,38a.035.035,0,0,1,.035-.035l.071-.071h0l.035-.035h0l.035-.035h0l.035-.035.071-.071h0a.035.035,0,0,1,.035-.035h0a.035.035,0,0,1,.035-.035c0-.035.035-.035.035-.071v-.035h0c.035-.035.035-.071.071-.071.035-.035.035-.071.071-.106.035-.071.106-.141.142-.212.035-.035.035-.071.071-.106h0v-.035a6.37,6.37,0,0,0,.743-1.627l.106-.354ZM308.348,31.1a4.421,4.421,0,0,1-.283,1.486,1.728,1.728,0,0,1-.106.248h0a5.078,5.078,0,0,1-.672,1.1,3.751,3.751,0,0,1-1.132.991,3.255,3.255,0,0,1-1.415.389,2.866,2.866,0,0,1-1.309-.283,2.043,2.043,0,0,1-.743-.708,1.714,1.714,0,0,1-.248-.92,1.816,1.816,0,0,1,.212-.884c.035-.035.071-.106.106-.141a2.526,2.526,0,0,1,.884-.708,6.315,6.315,0,0,1,1.309-.424,11.55,11.55,0,0,1,1.486-.212c.46-.035.884-.035,1.273-.035h.6V31.1Z" transform="translate(-192.389 -13.342)"/><g transform="translate(21.826 0.106)"><path class="b" d="M79.281,35.027H77.336a.076.076,0,0,1-.071-.071c-.035-.035-.035-.071-.071-.106h0a.449.449,0,0,1-.035-.212V27.846a5.743,5.743,0,0,0-.035-.743h0a9.653,9.653,0,0,0-.318-2.158,5.531,5.531,0,0,0-1.273-2.264,6.378,6.378,0,0,0-2.37-1.521,5.468,5.468,0,0,0-.814-.248,8.286,8.286,0,0,0-1.061-.177h0a9.29,9.29,0,0,0-2.795.035h0a10.032,10.032,0,0,0-2.264.637,9.366,9.366,0,0,0-1.7.955,13.577,13.577,0,0,0-1.2,1.026c-.283.318-.531.566-.708.814-.071.106-.142.177-.177.248a.321.321,0,0,0-.106.248v.071l.035.035c1.1,1.309,1.556,1.875,2.264,1.769a4.322,4.322,0,0,0,1.627-.955,8.782,8.782,0,0,1,1.1-.672,3.771,3.771,0,0,1,.672-.248h0a.11.11,0,0,0,.071-.035c.177-.035.389-.106.566-.141a.213.213,0,0,0,.141-.035A4.319,4.319,0,0,1,71,24.7h0a2.029,2.029,0,0,1,.248.141h0a1.726,1.726,0,0,1,.46.354h0c.106.142.177.283.283.424,0,.035.035.071.035.106a6.554,6.554,0,0,1,.248,1.769h-.212c-.46,0-1.026.035-1.733.071-.672.035-1.415.142-2.158.248a12.569,12.569,0,0,0-2.264.6,7.746,7.746,0,0,0-2.087,1.061A4.573,4.573,0,0,0,62.3,31.136a4.757,4.757,0,0,0-.6,2.406h0a5.56,5.56,0,0,0,.5,2.37A5.466,5.466,0,0,0,63.54,37.68a6.09,6.09,0,0,0,1.946,1.061,6.9,6.9,0,0,0,2.264.354,6.165,6.165,0,0,0,2.087-.318A5.58,5.58,0,0,0,71.357,38a6.22,6.22,0,0,0,.99-.92,2.251,2.251,0,0,0,.566,1.38,1.676,1.676,0,0,0,.672.424h.035a.666.666,0,0,0,.283.071.13.13,0,0,1,.106.035h.035c.071,0,.106.035.177.035h.071c.142,0,.318.035.5.035h.849c.035,0,.071,0,.071-.035h.035a1.532,1.532,0,0,1,.177-.035H76.2c.035,0,.035,0,.071-.035.035,0,.035,0,.071-.035.035,0,.035,0,.071-.035h.035c.035,0,.035,0,.071-.035-.035,0-.035,0-.071.035.035,0,.035,0,.071-.035a.035.035,0,0,0,.035-.035c.035,0,.035-.035.071-.035s.035-.035.071-.035l.071-.035c.035,0,.071-.035.106-.071l.035-.035.035-.035c.035,0,.035-.035.071-.035h0c.035-.035.071-.035.071-.071h.035c.035-.035.071-.035.106-.071s.106-.071.141-.106a.772.772,0,0,1,.177-.141h0l.035-.035.035-.035h0L77.69,38a.035.035,0,0,1,.035-.035l.071-.071h0l.035-.035h0l.035-.035h0l.035-.035.071-.071h0a.035.035,0,0,1,.035-.035h0l.035-.035c0-.035.035-.035.035-.071v-.035h0c.035-.035.035-.071.071-.071.035-.035.035-.071.071-.106.035-.071.106-.141.142-.212.035-.035.035-.071.071-.106h0v-.035a6.368,6.368,0,0,0,.743-1.627l.106-.354ZM72.348,31.1a4.42,4.42,0,0,1-.283,1.486,1.725,1.725,0,0,1-.106.248h0a5.079,5.079,0,0,1-.672,1.1,3.752,3.752,0,0,1-1.132.991,3.255,3.255,0,0,1-1.415.389,2.866,2.866,0,0,1-1.309-.283,2.043,2.043,0,0,1-.743-.708,1.714,1.714,0,0,1-.248-.92,1.817,1.817,0,0,1,.212-.884c.035-.035.071-.106.106-.141a2.526,2.526,0,0,1,.884-.708,6.316,6.316,0,0,1,1.309-.424,11.55,11.55,0,0,1,1.486-.212c.46-.035.884-.035,1.274-.035h.6V31.1Z" transform="translate(-61.7 -13.448)"/><path class="b" d="M83.183.442,83.076.76c-.071.248-.142.46-.212.672-.46,1.45-.566,1.8-1.167,2.229a.5.5,0,0,0-.212.071,5.466,5.466,0,0,1-2.405.283h-.035a8.187,8.187,0,0,0-1.663.212h0a9.757,9.757,0,0,0-.955.283H76.32l-.035.035A2.437,2.437,0,0,1,76,4.651l-.6.283.248-.637a6.961,6.961,0,0,1,1.946-2.865A3.792,3.792,0,0,1,79.15.583h.035A12.4,12.4,0,0,1,80.954.335,6.539,6.539,0,0,1,81.768.3a4.062,4.062,0,0,1,.672.035c.177,0,.283.035.354.035H82.9Z" transform="translate(-70.554 -0.3)"/></g><path class="b" d="M179.383,38.9c-.035,0-.035,0-.071.035-.035,0-.106.035-.142.035m6.934-18.43a6.271,6.271,0,0,0-5.271,2.406v-.248a2.318,2.318,0,0,0-.6-1.557,2.512,2.512,0,0,0-.5-.354.5.5,0,0,0-.212-.071c-.035,0-.071-.035-.141-.035-.035,0-.035,0-.071-.035h-.035c-.035,0-.035,0-.071-.035-.035,0-.071,0-.071-.035-.071,0-.106-.035-.177-.035h-.071a2.175,2.175,0,0,0-.5-.035h-.849c-.035,0-.071,0-.071.035h-.035c-.071,0-.106.035-.177.035h-.177c-.035,0-.035,0-.071.035h-.035a.11.11,0,0,0-.071.035c-.035,0-.035.035-.071.035s-.035,0-.071.035a.035.035,0,0,0-.035.035h-.035c-.035,0-.035,0-.071.035a.035.035,0,0,0-.035.035c-.035,0-.035.035-.071.035s-.035.035-.071.035l-.071.035c-.035.035-.071.035-.106.071l-.035.035-.035.035c-.035,0-.035.035-.071.035-.035.035-.071.035-.071.071a.184.184,0,0,1-.141.071c-.035.035-.106.071-.142.106-.071.035-.106.106-.177.142h0l-.035.035-.035.035h0l-.071.071-.035.035-.071.071h0l-.035.035h0l-.035.035h0l-.035.035-.071.071h0l-.035.035h0a.035.035,0,0,1-.035.035c-.035.035-.035.035-.035.071v.035h0l-.071.071c-.035.035-.035.071-.071.106-.035.071-.106.141-.141.212a1708.486,1708.486,0,0,1-.283.424.123.123,0,0,1-.035.071v.035c0,.035-.035.035-.035.071-.035.071-.071.106-.071.177v.035c-.106.248-.212.531-.318.814,0,.035-.035.106-.035.142l-.106.318V24.6h1.839a.321.321,0,0,1,.248.106l.035.035v.035h0a.123.123,0,0,1,.035.071h0v.035h0V38.966h2.582a1.792,1.792,0,0,0,.46-.071c.035,0,.106-.035.141-.035s.035,0,.071-.035a2,2,0,0,0,.849-.5,2.559,2.559,0,0,0,.6-1.733V31.36a6.126,6.126,0,0,1,.106-1.132,7.72,7.72,0,0,1,.283-1.273,5.748,5.748,0,0,1,.743-1.557,4.082,4.082,0,0,1,1.061-1.026,5.23,5.23,0,0,1,2.087-.708,2.1,2.1,0,0,0,1.769-2.087V20.535H186.1Z" transform="translate(-112.383 -13.248)"/><script xmlns="">(function (AESD) {
  var core = {
    "log": false,
    "whitelist": function (status) {
      window.postMessage({
        "app": "audio-equalizer",
        "action": "page-whitelist",
        "value": {
          "status": status,
          "action": "page-whitelist"
        }
      }, '*');
    },
    "hostname": function (url) {
      if ("blob:" === url.substring(0, 5)) {
        url = url.replace("blob:", '');
        url = unescape(url);
      }
      /*  */
      var match = url.match(/:\/\/(www[0-9]?\.)?(.[^/:]+)/i);
      var flag = (match !== null) &amp;&amp; (match.length &gt; 2) &amp;&amp; (typeof match[2] === "string") &amp;&amp; (match[2].length &gt; 0);
      return flag ? match[2] : null;
    },
    "equalizer": {
      "targets": [],
      "filters": [],
      "storage": {},
      "audioContext": null,
      "gain": function () {
        var filter = core.equalizer.audioContext.createGain();
        filter.channelCountMode = "explicit";
        filter.gain.value = 1;
        return filter;
      },
      "biquad": function (e) {
        var filter = core.equalizer.audioContext.createBiquadFilter();
        filter.type = e.type || core.equalizer.storage.FT.LOWPASS;
        filter.frequency.value = e.f || 0;
        filter.gain.value = e.gain || 0;
        filter.Q.value = 1;
        return filter;
      },
      "set": function (o) {
        if (o) {
          if (o.eq &amp;&amp; o.config) {
            if (core.equalizer.filters.length &gt; 0) {
              if (core.equalizer.filters[0]) {
                core.equalizer.filters[0].channelCount = o.config.mono ? 1 : (core.equalizer.filters[0]._defaultChannelCount ? core.equalizer.filters[0]._defaultChannelCount : 2);
                core.equalizer.filters.forEach(function (f, i) {f.gain.value = o.eq[i].gain});
              }
            }
          }
        }
      },
      "load": function () {
        if (core.log) console.error(" &gt;&gt; Searching for video/audio elements...");
        core.equalizer.filters = [];
        delete core.equalizer.audioContext;
        /*  */
        core.equalizer.audioContext = new AudioContext();
        for (var i = 0; i &lt; core.equalizer.storage.eq.length; i++) {
          var node = core.equalizer.storage.eq[i];
          var filter = node.f ? core.equalizer.biquad(node) : core.equalizer.gain();
          if (filter) core.equalizer.filters.push(filter);
        }
        /*  */
        if (core.log) console.error(" &gt;&gt; Equalizer is loaded!");
        core.equalizer.attach(2);
      },
      "attach": function (w) {		
        if (!core.equalizer.audioContext) core.equalizer.load();
        else {
          core.equalizer.targets.forEach(function (t, k) {
            if (t.getAttribute("equalizer-state") !== "attached") {
              var src = (t.src ? t.src : t.currentSrc);
              var crossorigin = t.getAttribute("crossorigin");
              if (src) {
                t.setAttribute("equalizer-state", "attached");
                if (core.log) console.error(" &gt;&gt; Equalizer is attached, loc", w, t.className);
                if (!crossorigin &amp;&amp; document.location.hostname !== core.hostname(src) &amp;&amp; src.substring(0, 5) !== "blob:") {
                  t.setAttribute('crossorigin', (crossorigin ? crossorigin : "anonymous"));
                  if (t.src) t.src = t.src + '';
                  else if (t.currentSrc) t.load();
                }
                /*  */
                var source = core.equalizer.audioContext.createMediaElementSource(t);
                core.equalizer.filters[0]._defaultChannelCount = (source.channelCount) ? source.channelCount : 2;
                source.connect(core.equalizer.filters[0]);
                /*  */
                for (var i = 0; i &lt; core.equalizer.filters.length; i++) {
                  var next = core.equalizer.filters[i + 1];
                  var current = core.equalizer.filters[i];
                  if (next) current.connect(next);
                }
                /*  */
                var last = core.equalizer.filters.length - 1;
                core.equalizer.filters[last].connect(core.equalizer.audioContext.destination);
              }
            }
          });
        }
      }
    }
  };
  /*  */
  core.equalizer.storage = AESD;
  /*  */
  window.addEventListener("message", function (e) {
    if (e.data.app === "audio-equalizer") {
      if (e.data.action === "app-set") core.equalizer.set(e.data.value);
      if (e.data.action === "page-whitelist-enable") core.whitelist(e.data.value);
      if (e.data.action === "page-whitelist-disable") core.whitelist(e.data.value);
    }
  }, false);
  /*  */
  window.addEventListener("play", function (e) {
    core.equalizer.targets.push(e.target);
    core.equalizer.attach(0);
  }, true);
  /*  */
  if (Audio) {
    if (Audio.prototype) {
      if (Audio.prototype.play) {
        const PROTO = Audio.prototype.play;
        Audio.prototype.play = function () {
          core.equalizer.targets.push(this);
          core.equalizer.attach(1);
          /*  */
          return PROTO.apply(this, arguments);
        };
      }
    }
  }
})({"config":{"snap":false,"mono":false},"eq":[{"label":"master","gain":"1.02"},{"label":"64","f":64,"gain":4.32,"type":"peaking"},{"label":"32","f":32,"gain":4.32,"type":"lowshelf"},{"label":"125","f":125,"gain":0,"type":"peaking"},{"label":"250","f":250,"gain":0,"type":"peaking"},{"label":"500","f":500,"gain":0,"type":"peaking"},{"label":"1k","f":1000,"gain":0,"type":"peaking"},{"label":"2k","f":2000,"gain":0,"type":"peaking"},{"label":"4k","f":4000,"gain":0,"type":"peaking"},{"label":"8k","f":8000,"gain":4.32,"type":"peaking"},{"label":"16k","f":16000,"gain":4.32,"type":"highshelf"}],"presets":[{"name":"Club","default":true,"gains":[0,0,4.8,3.36,3.36,3.36,1.92,0,0,0]},{"name":"Live","default":true,"gains":[-2.88,0,2.4,3.36,3.36,3.36,2.4,1.44,1.44,1.44]},{"name":"Party","default":true,"gains":[4.32,4.32,0,0,0,0,0,0,4.32,4.32]},{"name":"Pop","default":true,"gains":[0.96,2.88,4.32,4.8,3.36,0,-1.44,-1.44,0.96,0.96]},{"name":"Soft","default":true,"gains":[2.88,0.96,0,-1.44,0,2.4,4.8,5.76,6.72,7.2]},{"name":"Ska","default":true,"gains":[-1.44,-2.88,-2.4,0,2.4,3.36,5.28,5.76,6.72,5.76]},{"name":"Reggae","default":true,"gains":[0,0,0,-3.36,0,3.84,3.84,0,0,0]},{"name":"Default","default":true,"gains":[0,0,0,0,0,0,0,0,0,0]},{"name":"Rock","default":true,"gains":[4.8,2.88,-3.36,-4.8,-1.92,2.4,5.28,6.72,6.72,6.72]},{"name":"Dance","default":true,"gains":[5.76,4.32,1.44,0,0,-3.36,-4.32,-4.32,0,0]},{"name":"Techno","default":true,"gains":[4.8,3.36,0,-3.36,-2.88,0,4.8,5.76,5.76,5.28]},{"name":"Headphones","default":true,"gains":[2.88,6.72,3.36,-1.92,-1.44,0.96,2.88,5.76,7.68,8.64]},{"name":"Soft rock","default":true,"gains":[2.4,2.4,1.44,0,-2.4,-3.36,-1.92,0,1.44,5.28]},{"name":"Classical","default":true,"gains":[0,0,0,0,0,0,-4.32,-4.32,-4.32,-5.76]},{"name":"Large Hall","default":true,"gains":[6.24,6.24,3.36,3.36,0,-2.88,-2.88,-2.88,0,0]},{"name":"Full Bass","default":true,"gains":[4.8,5.76,5.76,3.36,0.96,-2.4,-4.8,-6.24,-6.72,-6.72]},{"name":"Full Treble","default":true,"gains":[-5.76,-5.76,-5.76,-2.4,1.44,6.72,9.6,9.6,9.6,10.08]},{"name":"Laptop Speakers","default":true,"gains":[2.88,6.72,3.36,-1.92,-1.44,0.96,2.88,5.76,7.68,8.64]},{"name":"Full Bass &amp; Treble","default":true,"gains":[4.32,3.36,0,-4.32,-2.88,0.96,4.8,6.72,7.2,7.2]}],"selected":{"name":"Party","default":true,"gains":[4.32,4.32,0,0,0,0,0,0,4.32,4.32]},"whitelist":["osu.ppy.sh","www.youtube.com"]})</script></svg>